<svg xmlns="http://www.w3.org/2000/svg" viewBox="0 0 256 256" width="256" height="256" fill="#37474f">
  <rect width="244" height="244" x="6" y="6" ry="20" fill="#fff"/>

  <path
    d="
      M89.76 144.272c0 5.952-.528 11.376-1.584 16.272-1.056 4.8-2.688 8.928-4.896 12.384-2.112 3.456-4.848 6.144-8.208 8.064-3.264 1.92-7.152 2.88-11.664 2.88s-8.448-.96-11.808-2.88c-3.36-1.92-6.144-4.608-8.352-8.064-2.112-3.456-3.696-7.584-4.752-12.384-1.056-4.896-1.584-10.32-1.584-16.272 0-5.856.528-11.232 1.584-16.128 1.056-4.896 2.64-9.072 4.752-12.528 2.208-3.552 4.992-6.288 8.352-8.208 3.36-1.92 7.296-2.88 11.808-2.88s8.4.96 11.664 2.88c3.36 1.92 6.096 4.656 8.208 8.208 2.208 3.456 3.84 7.632 4.896 12.528 1.056 4.896 1.584 10.272 1.584 16.128z
      m-12.96 0c0-4.224-.24-8.064-.72-11.52-.48-3.552-1.248-6.576-2.304-9.072-1.056-2.592-2.448-4.56-4.176-5.904-1.728-1.44-3.792-2.16-6.192-2.16-2.496 0-4.608.72-6.336 2.16-1.632 1.344-3.024 3.312-4.176 5.904-1.056 2.496-1.824 5.52-2.304 9.072-.48 3.456-.72 7.296-.72 11.52 0 4.224.24 8.112.72 11.664.48 3.456 1.248 6.432 2.304 8.928 1.152 2.496 2.544 4.464 4.176 5.904 1.728 1.344 3.84 2.016 6.336 2.016 2.4 0 4.464-.672 6.192-2.016 1.728-1.44 3.12-3.408 4.176-5.904s1.824-5.472 2.304-8.928c.48-3.552.72-7.44.72-11.664zM156.416 144.272c0 5.952-.528 11.376-1.584 16.272-1.056 4.8-2.688 8.928-4.896 12.384-2.112 3.456-4.848 6.144-8.208 8.064-3.264 1.92-7.152 2.88-11.664 2.88s-8.448-.96-11.808-2.88c-3.36-1.92-6.144-4.608-8.352-8.064-2.112-3.456-3.696-7.584-4.752-12.384-1.056-4.896-1.584-10.32-1.584-16.272 0-5.856.528-11.232 1.584-16.128 1.056-4.896 2.64-9.072 4.752-12.528 2.208-3.552 4.992-6.288 8.352-8.208 3.36-1.92 7.296-2.88 11.808-2.88s8.4.96 11.664 2.88c3.36 1.92 6.096 4.656 8.208 8.208 2.208 3.456 3.84 7.632 4.896 12.528 1.056 4.896 1.584 10.272 1.584 16.128z
      m-12.96 0c0-4.224-.24-8.064-.72-11.52-.48-3.552-1.248-6.576-2.304-9.072-1.056-2.592-2.448-4.56-4.176-5.904-1.728-1.44-3.792-2.16-6.192-2.16-2.496 0-4.608.72-6.336 2.16-1.632 1.344-3.024 3.312-4.176 5.904-1.056 2.496-1.824 5.52-2.304 9.072-.48 3.456-.72 7.296-.72 11.52 0 4.224.24 8.112.72 11.664.48 3.456 1.248 6.432 2.304 8.928 1.152 2.496 2.544 4.464 4.176 5.904 1.728 1.344 3.84 2.016 6.336 2.016 2.4 0 4.464-.672 6.192-2.016 1.728-1.44 3.12-3.408 4.176-5.904s1.824-5.472 2.304-8.928c.48-3.552.72-7.44.72-11.664zM178.408 182a3 3 0 0 1-3-3V85.208a3 3 0 0 1 3-3h38.784a3 3 0 0 1 3 3v5.088a3 3 0 0 1-3 3h-25.824a3 3 0 0 0-3 3v25.392a3 3 0 0 0 3 3h22.224a3 3 0 0 1 3 3v4.8a3 3 0 0 1-3 3h-22.224a3 3 0 0 0-3 3V179a3 3 0 0 1-3 3h-6.96z
    "
  />
</svg>
