<svg xmlns="http://www.w3.org/2000/svg" viewBox="0 0 256 256" width="256" height="256">
  <path d="M0 0h256v256H0z" fill="none"/>

  <g transform="translate(0 -229.267)">
    <circle cx="128" cy="357.267" r="126.906" fill="#673ab7"/>
    <circle r="120.595" cy="357.267" cx="128" fill="#ffeb3b"/>

    <path d="M170 245.267l-26 60 53.625-45.831-40.643 51.226 63.659-30.39-52.517 38.961 69.356-12.878-60.81 24.042 70.325 5.51-64.962 7.484 66.503 23.525-64.684-9.585L242 397.267l-60-26 45.83 53.624-51.225-40.643 30.39 63.66-38.962-52.517 12.879 69.356-24.042-60.811-5.511 70.326-7.483-64.962-23.525 66.503 9.585-64.685L90 469.267l26-60-53.625 45.83 40.643-51.226-63.659 30.39L91.876 395.3 22.52 408.178l60.81-24.041-70.325-5.511 64.962-7.484-66.503-23.525 64.684 9.585L18 317.267l60 26-45.83-53.625 51.225 40.643-30.39-63.66 38.962 52.517-12.879-69.356 24.042 60.812 5.511-70.326 7.483 64.961 23.525-66.503-9.585 64.685z" fill="#673ab7"/>

    <circle r="79.582" cy="357.267" cx="128" fill="#673ab7"/>
    <circle r="73.218" cy="357.267" cx="127.999" fill="#fff"/>

    <path d="M102.586 359.24l27.366 23.392L165 313.925z" fill="#673ab7"/>
  </g>
</svg>
