<svg xmlns="http://www.w3.org/2000/svg" viewBox="0 0 256 256" width="256" height="256" fill="#37474f">
  <path d="M0 0h256v256H0z" fill="none"/>

  <rect width="244" height="244" x="6" y="6" ry="20" fill="#fff"/>

  <path
    d="
      M128.25 74.5c-7.94 22.158-6.5 33.25-29.25 68 0 0 2 3.5 8 1 16.25-21.25 23.25-37.25 23.25-37.25s-7 32.5-8 84c13.25 5 19-1.5 19-1.5s-4.5-46.5 4-128c-9.5-4.5-12.767 1.937-17 13.75z
      m86-15.5c-11.25 21.5-23.5 56.75-23.5 56.75s-3.75-20.25-16-57.5c-5.25 1.75-10 5.25-12.5 11.5 0 0 14.25 30.25 19.75 58-7.25 31.25-27 60-27 60 3.75 1.75 9.75 3 15.5.5C189.25 155.5 192.25 143 192.25 143S196 157.5 215 192c6 3 11.25 2 14.5.25 0 0-17.25-35.25-29.25-63.25 8.25-26.5 28.25-64.75 28.25-64.75-2.75-3-7.5-5.5-14.25-5.25z
      m-145 11.25c-5.031 12.504-7 31.417-34.25 71.75 0 0-.066 5.453 6.5 2.75 14.816-16.953 25.75-40.25 25.75-40.25s-6.772 18.999-5.5 87c12.772 5.001 18-1.5 18-1.5s-9.073-58.145 5-127.75c-8.177-7.105-12.688 1.01-15.5 8z
    "
  />
</svg>
