<svg xmlns="http://www.w3.org/2000/svg" viewBox="0 0 256 256" width="256" height="256" fill="#263238">
  <path d="M0 0h256v256H0z" fill="none"/>

  <rect width="244" height="244" x="6" y="6" ry="20" fill="#fff"/>

  <path
    d="
      M52.957 49.844c-4.93-.17-6.528 4.94-5.945 8.883.483 32.752 4.423 65.243 5.17 98.024.358 15.699 1.406 28.474 1.505 43.743.03 4.457 1.667 4.618 2.792 5.188 2.493 1.263 8.802.883 12.427 1.308 8.492.996 11.145 1.34 17.095 1.682 2.307.133 5.48.412 6.925-2.54 1.385-2.828-1.585-5.876-5.174-6.597-7.647-1.536-16.356-1.169-23.406-3.076 1.936-42.45-4.902-82.484-8.812-124.588-.559-6.021-.972-11.054-.946-12.252.036-1.704-.012-2.18 1.637-2.225 8.377-.232 18.364 1.45 25.12-.31 1.453-.378 2.007-1.784 1.962-3.092-.055-1.606-1.058-3.174-4.424-3.21-8.616-.095-17.285-.64-25.926-.938z
      M165.727 49.822c-4.278-.6-4.842 6.28-.536 6.434 9.39 1.61 18.95 2.56 28.362 3.625-2.67 37.754-1.769 72.72.975 110.44.623 7.656 2.66 15.308 4.386 22.61-11.494 5.609-24.402 6.412-36.857 8.124-5.02.899-3.337 8.81 1.556 7.925 14.592-.558 29.559-3.489 42.348-10.748 4.593-3.583 1.669-6.483.994-12.753-4.288-39.852-6.665-73.383-4.898-125.32.166-4.886-.6-7.583-5.325-7.64-10.269-1.491-20.677-1.6-31.005-2.697z
      M131.107 47.188c-5.255.418-4.976 5.509-4.71 9.476 1.235 18.495 1.702 37.959 2.73 56.498-13.08-3.05-26.656 6.161-32.06 17.787-6.545 14.08-2.632 34.18 10.005 41.81 8.19 4.945 19.53-2.245 24.117-10.01 1.678-2.842 2.856-5.944 3.944-9.05 2.474 8.487 5.496 17.809 11.979 23.143 1.536 1.264 3.981.715 4.929-.453 1.011-1.246 1.52-3.184-.152-5.983-9.814-16.416-9.848-36.35-11.827-54.802-2.229-20.78-.544-41.872-3.287-62.59-.384-2.905-2.086-6.112-5.668-5.827z
      m-6.334 72.462c1.62-.065 3.227.226 4.406.932.445 1.487.553 6.056.36 8.3-.41 4.77.047 21.627-7.69 32.481-2.815 3.95-9.94 6.056-12.29 3.222-8.117-9.79-10.391-27.227.382-37.632 4.05-3.91 9.091-7.07 14.832-7.303z
    "
  />
</svg>
