<svg xmlns="http://www.w3.org/2000/svg" viewBox="0 0 256 256" width="256" height="256">
  <rect x="6" y="6" width="244" height="244" rx="20" fill="#fff"/>
  <rect x="27" y="27" width="202" height="202" rx="10" fill="url(#a)"/>
  <path d="M157.737 128.038c.207 1.638-.951 3.126-2.573 3.435a43.445 43.445 0 0 0-7.132 1.975c-2.976 1.056-5.664 2.784-8.064 5.184-2.4 2.304-4.416 5.376-6.048 9.216-1.047 2.617-1.915 5.68-2.605 9.189-.45 2.284 1.881 4.064 4.143 3.513.257-.063.512-.121.766-.174 1.92-.384 3.696-.576 5.328-.576 6.912 0 12.24 2.736 15.984 8.208 3.84 5.376 5.76 12.816 5.76 22.32 0 10.176-1.824 18.192-5.472 24.048-3.552 5.856-9.216 8.784-16.992 8.784-3.936 0-7.392-.768-10.368-2.304-2.976-1.536-5.472-4.032-7.488-7.488-1.92-3.552-3.408-8.16-4.464-13.824-.96-5.76-1.44-12.768-1.44-21.024 0-7.2.672-14.208 2.016-21.024 1.44-6.816 3.696-12.864 6.768-18.144 3.168-5.376 7.248-9.744 12.24-13.104 4.446-2.936 9.772-4.699 15.977-5.29 1.549-.147 2.893 1.002 3.089 2.546l.575 4.534zm-19.209 41.842c-1.536 0-3.072.288-4.608.864a22.2 22.2 0 0 0-2.922 1.141c-.892.425-1.454 1.319-1.498 2.306a46.13 46.13 0 0 0-.044 2.025v3.6c0 4.416.096 8.64.288 12.672.288 3.936.816 7.44 1.584 10.512.768 2.976 1.872 5.376 3.312 7.2 1.536 1.728 3.552 2.592 6.048 2.592 3.744 0 6.336-1.968 7.776-5.904 1.536-4.032 2.304-9.36 2.304-15.984 0-7.2-1.008-12.48-3.024-15.84-1.92-3.456-4.992-5.184-9.216-5.184zM168.723 188.019c0-.283.04-.565.119-.836 1.71-5.831 3.879-11.983 6.505-18.455a395.577 395.577 0 0 1 8.352-19.152c2.88-6.144 5.616-11.712 8.208-16.704 2.239-4.159 4.112-7.551 5.619-10.178a2.969 2.969 0 0 1 2.58-1.486h7.953a3 3 0 0 1 3 3v59.232a3 3 0 0 0 3 3h3.792a3 3 0 0 1 3 3v4.224a3 3 0 0 1-3 3h-3.792a3 3 0 0 0-3 3V218a3 3 0 0 1-3 3h-5.376a3 3 0 0 1-3-3v-18.336a3 3 0 0 0-3-3h-24.96a3 3 0 0 1-3-3v-5.645zm27.96-1.579a3 3 0 0 0 3-3v-34.273c0-2.776-3.799-3.658-5.04-1.175a535.014 535.014 0 0 0-5.616 12.24c-1.824 4.32-3.6 8.736-5.328 13.248a165.4 165.4 0 0 0-3.274 9.126c-.62 1.906.82 3.834 2.825 3.834h13.433z" fill="#fff"/>
  <defs>
    <linearGradient id="a" x1="27" y1="27" x2="229" y2="27" gradientUnits="userSpaceOnUse">
      <stop offset=".401" stop-color="#FF5353"/>
      <stop offset=".401" stop-color="#01C853"/>
      <stop offset="1" stop-color="#03A9F4"/>
    </linearGradient>
  </defs>
</svg>
