<svg xmlns="http://www.w3.org/2000/svg" viewBox="0 0 256 256" width="256" height="256" fill="#37474f">
  <path d="M0 0h256v256H0z" fill="none"/>

  <rect width="244" height="244" x="6" y="6" ry="20" fill="#fff"/>

  <path
    d="
      M113.232 49.74c-.888-.069-1.841.138-2.57.668-1.945 1.415-22.302 15.985-33.28 55.593-7.912 28.551-10.381 41.188-10.17 40.953 0 0-4.597 1.255-8.163 3.523-3.567 2.269-3.671 3.623-2.942 6.875.352 1.567 2.539 3.275 4 2.688 1.508-.605 6.178-1.785 6.178-1.785s-2.008 6.374-2.989 11.37c-2.816 14.34-3.357 20.852-3.602 23.007-.244 2.156.837 4.147 5.415 4.087 4.579-.06 12.33.286 13.753-1.948 2.23-3.502 1.593-6.832 2.986-17.172 1.88-13.95 4.632-21.265 4.632-21.265s3.51-1.415 11.819-2.299c8.308-.884 11.668 0 11.668 0s-.353 1.082 2.107 19.145c2.073 15.218 2.812 17.014 5.15 21.185 2.34 4.171 5.283 4.208 8.399 4.074 3.116-.133 11.984-1.656 10.885-6.117-1.099-4.46-3.358-12.811-5.451-25.047-1.867-10.91-2.083-21.288-4-47.82-2.824-39.072-3.733-60.717-5.3-64.123-1.566-3.406-7.045-5.476-8.525-5.592z
      m-5.423 28.167s-.153 2.023.908 34.727c1.06 32.704 1.238 28.108 1.238 28.108s-4.408-.778-12.55 0c-8.076.772-10.186 1.9-10.186 1.9s.453-4.772 7.068-30.873c6.56-25.888 13.522-33.862 13.522-33.862z
      M158.5 184c0-4.625-.71-6.8 5.125-7.5 6.25-.75 13.5-.875 20.625-1s27.75 1.75 33 2.375c4.22.502 4.125 3.875 4 7.75s.74 8.04-3.125 7.75c-5-.375-24-3.25-34.125-2.875s-20.372 1.572-22.125 1.5c-2.822-.116-3.375-3.375-3.375-8z
    "
  />
</svg>
