<svg xmlns="http://www.w3.org/2000/svg" viewBox="0 0 256 256" width="256" height="256">
  <path d="M0 0h256v256H0z" fill="none"/>

  <defs>
    <linearGradient id="paint0_linear" x1="128.256" y1="128.278" x2="195.855" y2="179.424" gradientUnits="userSpaceOnUse">
      <stop stop-color="#03A9F4"/>
      <stop offset="1" stop-color="#FF5353"/>
    </linearGradient>
  </defs>

  <rect width="244" height="244" x="6" y="6" ry="20" fill="#fff"/>

  <path
    d="M57.6992 161.074C29.9777 177.702 26.4991 205.207 26.0626 223.001C25.9678 226.866 29.134 230 33 230H104.895C108.761 230 112.218 226.842 113.671 223.259C116.635 215.954 124.542 203.033 145.639 186.087C170.587 166.048 209.707 155.998 224.279 152.793C227.593 152.064 230 149.151 230 145.757V33C230 29.134 226.863 25.9265 223.003 26.1539C215.113 26.6188 204.839 28.4882 193.699 36.0055C161.489 57.7414 161.489 95.2549 145.639 113.27C111.895 151.624 87.3534 143.286 57.6992 161.074Z"
    fill="url(#paint0_linear)"
  />
</svg>
