<svg xmlns="http://www.w3.org/2000/svg" viewBox="0 0 256 256" width="256" height="256" fill="#8c6e63">
  <circle cx="128" cy="128" r="126" fill="#ffc107"/>
  <circle cx="128" cy="128" r="110" fill="#fff"/>
  <path d="M163.982 84.271v21.851c-.773 2.723-3.823 1.883-3.986-.118-.187-2.282-.089-12.717-.156-17.668-.498-.1-1.703-.312-1.863-1.987-.199-2.094 1.037-15.935 1.037-19.025 0-3.382 4.758-3.138 4.758-.446 0 2.692.21 9.417.21 17.393zM183.271 58.05c2.75-5.046 8.225-2.24 6.181 1.696-.631 1.395-2.784 7.579-6.612 17.31-4.786 12.162-4.148 11.043-4.589 12.4-.506 1.56-1.07 1.121-2.41 5.812-.693 2.426-.945.468-2.44-.828-1.196-1.037-1.144-3.12 0-5.47-.597-.72.479-5.467 1.994-9.934 1.894-5.583 4.688-15.133 7.876-20.985z"/>
  <path d="M148.614 172.626c-.408-1.601-.338-4.853.131-7.197.92-2.897 4.193-1.611 4.193.329 0 1.5-.15 4.125-.15 5.414l3.399 7.677c.391-4.106 1.195-10.963 1.351-12.725.267-3.015 1.464-9.426 1.761-12.087.417-3.733.866-7.322 1.167-9.647.301-2.334 1.009-3.859 1.838-5.893 1.318-3.235 1.971-4.632 3.319-7.211 1.348-2.579 2.509-2.311 3.389-3.079.796-.693.786-.999 2.962-1.681 2.641-.827 4.802-.407 7.658-.827 1.547-.227 3.896-1.212 7.871-2.348 5.078-1.451 9.302-2.006 12.381-3.789 2.595-1.502 2.188-2.375 2.188-4.509 0-2.135-3.884-2.685-5.123-2.829-2.509-.291-6.336-.291-8.394-.291h-.027c-2.051 0-5.294-1.39-8.309-3.444-2.532-1.725-4.512-5.67-7.018-10.033-1.24-2.16-4.207-6.224-8.619-7.018-2.93-.527-4.722.054-6.51 1.281-1.788 1.228-3.523-1.325-2.591-2.53.901-1.166.934-2.093 5.739-2.913 4.806-.82 8.304 1.001 11.234 3.228 2.93 2.227 5.073 6.726 6.03 8.352.866 1.47 1.608 3.348 4.544 6.094 3.328 3.112 7.032 2.578 10.9 2.578 2.968 0 7.853.801 9.265 1.868 3.772 2.853 3.815 8.165 3.122 9.659-.867 1.867-3.309 3.949-5.55 5.043-2.674 1.305-7.285 2.268-10.001 2.945-3.13.781-7.297 2.398-9.585 2.792-1.699.293-2.489.288-4.189.347-1.699.059-2.131.629-3.479.629-1.348 0-1.508.876-2.353 1.214-1.465.586-.608.083-1.35.79-.932.888-2.058 3.685-2.66 5.626-.772 2.494-1.33 3.078-2.209 5.949-.706 2.306-.205 3.748-.696 6.94-.576 3.744-2.066 14.075-2.434 16.734-.368 2.66-.254 6.877-1.146 10.413-.593 2.353-.567 4.902-1.084 6.833-.56 2.09-.348 1.903-.859 4.381-.595 2.884-4.358 1.695-4.358 0 0-1.465.031-1.088-.102-2.274-.368-3.294-4.767-11.333-5.646-14.791zM124.5 96c.938 2.524 2 6.5 0 7.5-3 1-4.1-1.9-4.5-3.5-.5-2-4.392-12.894-7.892-20.394-2.8-6-7.97-17.295-10.136-22.129-3.285 5.621-6.962 10.522-9.29 12.605-6.14 5.492-18.297 5.7-28.203 10.517-6.174 2.318-14.774 8.483-14.774 13.152 0 4.128 4.807 7.91 5.807 8.91s2.713.712 4.213.712c1.2 0 2.794.809 2.961 1.309 1-.333 3.758-.569 7.202-.911 3.518-.348 1.932-.125 7.112-.771 10.48-1.307 16.673-4.77 21 0 2.851 3.142 2.12 12.158 3 17 .632 3.479 2.137 7.598 2.28 11.299.085 2.219-2.229 3.847-3.73 2.847-1.2-.8-1.217-1.813-1.05-2.146 0-3.662-1.227-4.8-2.5-13.5-.88-6.019.199-11.378-1.801-12.878s-11.103 1.153-15.197 1.648c-4.407.533-7.675 1.017-10.605 1.017-2.693 0-1.897-.016-5.397.484-2.8.4-3.929-.668-4.095-1.501-.834.167-3.205.13-4.405-.27-1.5-.5-9.494-7.154-9.494-12.757 0-7.134 7.209-12.737 15.352-17.289C69.22 72 85.153 70.61 89.85 65.961c4.06-4.019 7.777-10.117 9.03-12.5 1.253-2.383 1.826-2.967 3.648-2.36 2.121.707 3.593 4.726 4.685 6.677C114.213 70.278 118 78.5 124.5 96z"/>
  <circle cx="86.193" cy="82.679" r="3.754"/>
  <circle cx="171.587" cy="114.471" r="3.665"/>
  <path d="M119.397 67.635c3.746-2.091 5.27-3.897 7.993-1.655.757.757 1.559 2.185 2.475 5.153 1.074 3.476 2.152 10.9 3.037 16.71.884 5.812 1.657 11.486 1.846 13.76.19 2.274-1.808 3.039-3.501 2.469-1.812-.612-2.115-7.53-3.062-15.11-.758-6.063-1.847-15.464-3.566-19.364-5.312 3.259-10.662 5.684-11.662 6.89-2.437 2.936-4.965 3.014-4.863.385.109-2.796 7.611-7.177 11.303-9.238zM90.855 155.746c-3.572 6.586-9.686 17.519-9.416 28.713.034 1.388.783 3.733 2.539 5.649 1.73 1.889 5.419 4.777 7.783 6.604 2.886 2.23 5.06-1.498 3.453-3.045-2.6-2.503-8.509-6.13-8.8-8.651-.556-4.827 1.217-9.737 4.441-18.226 3.11-8.187 11.594-22.777 14.568-24.859 2.149-1.505 3.51-1.855 3.631-3.916.108-1.827-1.768-3.733-3.38-3.196-1.289.43-1.286 1.839-1.071 2.627-5.838 3.606-10.45 12.217-13.748 18.3z"/>
  <path d="M99.275 193.667c5.394 6.439 12.723 11.571 15.321 13.122-3.329 2.336-5.581 2.995-7.409 4.019-2.284 1.28-1.104 4.971 2.276 3.874s8.365-3.511 9.782-6.441c1.23-2.54-.859-4.484-2.76-5.762-2.809-1.889-9.184-6.298-13.705-12.107-4.6-5.913-4.6-10.226-4.6-16.078 0-6.019 3.728-10.778 5.482-13.886.91.81 2.436 2.629 4.59 3.108 2.955.656 11.304 3.079 15.691 4.192 4.387 1.112 4.899-3.278 1.792-4.192-6.988-2.056-15.859-3.737-16.95-4.332-1.598-.871-3.055-1.692-3.39-2.179-.29-1.695-2.263-2.557-3.487-.92-2.664 3.565-4.9 6.657-6.694 10.705-1.78 4.017-3.653 17.669 4.061 26.877z"/>
  <path
    d="m128 128 16.823-62.785M128 128v100"
    stroke="#000"
    stroke-width="10"
    stroke-linecap="round"
  />
</svg>
