<svg xmlns="http://www.w3.org/2000/svg" viewBox="0 0 256 256" width="256" height="256">
  <defs>
    <linearGradient id="paint0_linear" x1="128" y1="48" x2="128" y2="216" gradientUnits="userSpaceOnUse">
      <stop stop-color="#AAAAAA"/>
      <stop offset="1" stop-color="#E5E5E5"/>
    </linearGradient>
  </defs>

  <path
    d="M38.7069 61.5779C39.4401 53.8793 45.9059 48 53.6393 48H202.361C210.094 48 216.56 53.8793 217.293 61.5779L230.436 199.578C231.275 208.384 224.35 216 215.504 216H40.4964C31.6503 216 24.7253 208.384 25.564 199.578L38.7069 61.5779Z"
    fill="url(#paint0_linear)"
  />
  <path
    d="M56.2112 71.0639C56.6999 64.8186 61.9103 60 68.1746 60H189.633C195.976 60 201.224 64.9374 201.611 71.2693L207.223 163.269C207.644 170.171 202.16 176 195.246 176H60.9757C53.9793 176 48.4664 170.039 49.0122 163.064L56.2112 71.0639Z"
    fill="#fff"
  />
  <path
    d="M176 136V112H160V124C160 128 160 128 156 128H120V120L88 136L120 152V144H168C172.5 144 176 140.5 176 136Z"
    fill="#333"
  />
</svg>
