<svg xmlns="http://www.w3.org/2000/svg" viewBox="0 0 256 256" width="256" height="256" fill="#37474f">
  <path d="M0 0h256v256H0z" fill="none"/>

  <rect width="244" height="244" x="6" y="6" ry="20" fill="#fff"/>

  <path
    d="
      M45.625 111.132V224h141.98c5.937 0 6.629-2.398 5.355-7.98-4.051-17.332-15.154-58.722-42.335-82.02-31.889-27.333-63.55-30.685-95.605-30.225-9.509 0-9.395 1.23-9.395 7.356z
      m82 31.868c28.375 23 33 61 33 61h-95v-80s33.625-4 62 19z
      M129 32h79c4 0 4 7.5 4 7.5s0 4.43-4 7.5l-44 34h60c4 0 4 7.5 4 7.5s0 7.5-4 7.5h-80c-4 0-4-7.5-4-7.5s0-4.43 4-7.5l44-34h-59c-4 0-4-7.5-4-7.5s.018-7.5 4-7.5z
    "
  />
</svg>
